<?xml version="1.0" encoding="UTF-8" standalone="no"?>
<!-- Created with Inkscape (http://www.inkscape.org/) -->

<svg
   version="1.1"
   id="svg2"
   xml:space="preserve"
   width="323.88"
   height="86.666664"
   viewBox="0 0 323.88 86.666664"
   sodipodi:docname="Artangel_black.eps"
   xmlns:inkscape="http://www.inkscape.org/namespaces/inkscape"
   xmlns:sodipodi="http://sodipodi.sourceforge.net/DTD/sodipodi-0.dtd"
   xmlns="http://www.w3.org/2000/svg"
   xmlns:svg="http://www.w3.org/2000/svg"><defs
     id="defs6" /><sodipodi:namedview
     id="namedview4"
     pagecolor="#ffffff"
     bordercolor="#666666"
     borderopacity="1.0"
     inkscape:pageshadow="2"
     inkscape:pageopacity="0.0"
     inkscape:pagecheckerboard="0" /><g
     id="g8"
     inkscape:groupmode="layer"
     inkscape:label="ink_ext_XXXXXX"
     transform="matrix(1.3333333,0,0,-1.3333333,0,86.666667)"><g
       id="g10"
       transform="scale(0.1)"><path
         d="m 464.23,148.457 h 62.848 v 155.137 c 0,85.59 36.777,139.082 92.957,139.082 10.688,0 23.399,-1.328 34.762,-6.02 v 56.172 c -13.367,2.676 -22.731,4.676 -41.453,4.676 -36.11,0 -72.211,-25.414 -88.934,-60.848 h -1.344 v 52.832 H 464.23 v -341.031 0"
         style="fill:#231f20;fill-opacity:1;fill-rule:nonzero;stroke:none"
         id="path12" /><path
         d="m 918.941,489.488 h -90.25 v 98.965 l -62.875,-20.062 v -78.903 h -76.89 v -50.816 h 76.89 V 239.391 c 0,-68.2 40.122,-98.961 104.985,-98.961 20.039,0 39.453,5.371 53.484,9.375 v 53.496 c -9.375,-6.016 -23.383,-12.051 -42.793,-12.051 -28.758,0 -52.801,21.426 -52.801,60.855 v 186.567 h 90.25 v 50.816 0"
         style="fill:#231f20;fill-opacity:1;fill-rule:nonzero;stroke:none"
         id="path14" /><path
         d="m 1180.41,280.867 c 0,-50.832 -32.77,-89.617 -94.95,-89.617 -28.76,0 -63.52,19.395 -63.52,55.523 0,60.165 84.22,65.516 118.35,65.516 13.39,0 26.73,-1.344 40.12,-1.344 V 280.867 Z M 997.188,411.914 c 25.412,21.399 63.522,34.777 98.972,34.777 62.83,0 84.25,-30.089 84.25,-88.937 -24.74,1.344 -42.12,1.344 -66.87,1.344 -64.87,0 -158.489,-26.743 -158.489,-112.325 0,-74.234 51.509,-106.343 125.039,-106.343 57.52,0 90.96,31.445 105.66,52.168 h 1.34 v -44.141 h 58.84 c -1.31,10.039 -2.66,28.106 -2.66,66.875 V 356.41 c 0,92.953 -39.46,141.094 -137.11,141.094 -43.45,0 -80.9,-13.363 -112.316,-32.09 l 3.344,-53.5 v 0"
         style="fill:#231f20;fill-opacity:1;fill-rule:evenodd;stroke:none"
         id="path16" /><path
         d="m 1296.15,148.457 h 62.87 v 157.828 c 0,82.899 32.08,140.406 103.63,140.406 54.83,-3.347 72.22,-42.125 72.22,-121.711 V 148.457 h 62.86 v 202.609 c 0,91.61 -39.45,146.438 -127.73,146.438 -47.46,0 -92.94,-23.399 -111.67,-62.184 H 1357 v 54.168 h -60.85 v -341.031 0"
         style="fill:#231f20;fill-opacity:1;fill-rule:nonzero;stroke:none"
         id="path18" /><path
         d="m 1803.75,199.297 c -58.83,0 -94.93,56.168 -94.93,120.367 0,58.156 31.42,127.027 94.93,127.027 66.87,0 99.63,-60.851 99.63,-131.714 0,-63.555 -40.77,-115.68 -99.63,-115.68 z m 162.5,290.191 h -58.18 v -50.816 h -1.34 c -18.73,36.762 -52.15,58.832 -112.32,58.832 -102.97,0 -152.45,-93.613 -152.45,-181.215 0,-88.242 48.13,-167.832 145.76,-167.832 43.45,0 87.6,17.383 114.35,52.832 h 1.31 v -33.418 c 0,-72.246 -39.45,-117.0312 -105.62,-117.0312 -46.15,0 -74.91,8.6915 -123.05,30.7618 L 1668.02,23.418 C 1722.85,4.6875 1754.27,0 1790.38,0 c 122.38,0 175.87,59.5313 175.87,163.184 v 326.304 0"
         style="fill:#231f20;fill-opacity:1;fill-rule:evenodd;stroke:none"
         id="path20" /><path
         d="m 2077.34,351.738 c 4.69,44.121 30.07,94.953 91.59,94.953 54.18,0 84.93,-42.8 84.93,-94.953 h -176.52 z m 217.31,-126.386 c -15.38,-12.676 -63.54,-34.102 -105,-34.102 -59.48,0 -112.31,46.148 -112.31,113.66 h 243.39 c 0,109.68 -36.79,192.594 -150.46,192.594 -96.27,0 -159.8,-71.543 -159.8,-172.524 0,-110.957 55.49,-184.55 176.53,-184.55 56.18,0 83.59,13.379 107.65,22.109 v 62.813 0"
         style="fill:#231f20;fill-opacity:1;fill-rule:evenodd;stroke:none"
         id="path22" /><path
         d="m 2366.26,148.457 h 62.85 v 501.504 h -62.85 v -501.504 0"
         style="fill:#231f20;fill-opacity:1;fill-rule:nonzero;stroke:none"
         id="path24" /><path
         d="M 211.035,556.555 355.93,149.629 h 66.121 L 246.137,635.109 H 211.035 175.914 L 0,149.629 H 66.1211 L 211.035,556.555 v 0"
         style="fill:#231f20;fill-opacity:1;fill-rule:nonzero;stroke:none"
         id="path26" /></g></g></svg>
